<?xml version="1.0" encoding="UTF-8" standalone="no"?>
<svg xmlns="http://www.w3.org/2000/svg" xmlns:svg="http://www.w3.org/2000/svg" width="263.603" zoomAndPan="magnify" viewBox="0 0 263.603 77.151999" height="77.152" preserveAspectRatio="xMidYMid" version="1.2" id="svg30">
  <defs id="defs2">
    <clipPath id="4224b4aa77">
      <path d="M 73,148.91797 H 99.628906 V 216 H 73 Z m 0,0" id="path1"></path>
    </clipPath>
    <clipPath id="dac982398e">
      <path d="M 53.878906,157 H 80 v 69.16797 H 53.878906 Z m 0,0" id="path2"></path>
    </clipPath>
  </defs>
  <g id="09a77e87d6">
    <g clip-rule="nonzero" clip-path="url(#4224b4aa77)" id="g3" transform="translate(-53.890625,-148.91797)">
      <path style="fill:#8cc546;fill-opacity:1;fill-rule:nonzero;stroke:none" d="m 99.300781,215.82422 -19.570312,-2.23438 v -51.47656 l -6.269531,-1.19141 v -9.05859 l 25.839843,-2.94531 v 66.90625" id="path3"></path>
    </g>
    <g clip-rule="nonzero" clip-path="url(#dac982398e)" id="g4" transform="translate(-53.890625,-148.91797)">
      <path style="fill:#5050ff;fill-opacity:1;fill-rule:nonzero;stroke:none" d="m 53.890625,226.07031 v -68.87109 l 19.570313,3.72265 V 212.875 l 6.269531,0.71484 v 7.57032 l -25.839844,4.91015" id="path4"></path>
    </g>
    <path style="fill:#0d5a5a;fill-opacity:1;fill-rule:nonzero;stroke:none" d="M 25.839844,64.671875 19.570313,63.957031 V 12.003906 l 6.269531,1.191406 v 51.476563" id="path5"></path>
    <path style="fill:#ffffff;fill-opacity:1;fill-rule:nonzero;stroke:none" d="M 17.160156,53.125 V 45.078125 H 9.113281 c -0.371094,0 -0.675781,-0.300782 -0.675781,-0.675782 v -9.730468 c 0,-0.375 0.304687,-0.675782 0.675781,-0.675782 h 8.046875 v -8.050781 c 0,-0.371093 0.304688,-0.675781 0.679688,-0.675781 h 9.730469 c 0.375,0 0.675781,0.304688 0.675781,0.675781 v 8.050781 h 8.046875 c 0.375,0 0.679687,0.300782 0.679687,0.675782 v 9.730468 c 0,0.375 -0.304687,0.675782 -0.679687,0.675782 H 28.246094 V 53.125 c 0,0.375 -0.300781,0.679687 -0.675781,0.679687 h -9.730469 c -0.375,0 -0.679688,-0.304687 -0.679688,-0.679687" id="path6"></path>
    <g style="fill:#5050ff;fill-opacity:1" id="g8" transform="translate(-53.890625,-148.91797)">
      <g transform="translate(117.4572,198.84016)" id="g7">
        <path style="stroke:none" d="m 16.75,-12.71875 c 1.039062,0.398438 1.972656,1.085938 2.796875,2.0625 0.820313,0.980469 1.234375,2.257812 1.234375,3.828125 0,1.25 -0.335938,2.402344 -1,3.453125 C 19.125,-2.332031 18.195312,-1.507812 17,-0.90625 15.800781,-0.300781 14.453125,0 12.953125,0 h -10.5625 v -23.921875 h 10.15625 c 1.40625,0 2.660156,0.289063 3.765625,0.859375 1.101562,0.5625 1.960938,1.328125 2.578125,2.296875 0.613281,0.96875 0.921875,2.046875 0.921875,3.234375 0,1.28125 -0.308594,2.335938 -0.921875,3.15625 -0.617187,0.8125 -1.328125,1.367188 -2.140625,1.65625 z M 7.28125,-19.75 v 5.296875 h 4.671875 c 0.875,0 1.585937,-0.25 2.140625,-0.75 0.5625,-0.5 0.84375,-1.140625 0.84375,-1.921875 0,-0.75 -0.289062,-1.375 -0.859375,-1.875 -0.574219,-0.5 -1.28125,-0.75 -2.125,-0.75 z m 5.125,15.578125 c 1.019531,0 1.851562,-0.285156 2.5,-0.859375 0.65625,-0.582031 0.984375,-1.34375 0.984375,-2.28125 0,-0.90625 -0.328125,-1.648438 -0.984375,-2.234375 -0.648438,-0.582031 -1.480469,-0.875 -2.5,-0.875 h -5.125 v 6.25 z m 0,0" id="path7"></path>
      </g>
    </g>
    <g style="fill:#5050ff;fill-opacity:1" id="g10" transform="translate(-53.890625,-148.91797)">
      <g transform="translate(139.94502,198.84016)" id="g9">
        <path style="stroke:none" d="m 18.515625,-8.984375 c 0,0.84375 -0.07031,1.492187 -0.203125,1.9375 H 5.78125 c 0.25,1.054687 0.742188,1.875 1.484375,2.46875 0.738281,0.59375 1.628906,0.890625 2.671875,0.890625 1.28125,0 2.316406,-0.429688 3.109375,-1.296875 H 17.9375 c -0.34375,0.84375 -0.886719,1.6875 -1.625,2.53125 -0.742188,0.835937 -1.65625,1.527344 -2.75,2.078125 -1.09375,0.539062 -2.277344,0.8125 -3.546875,0.8125 -1.617187,0 -3.109375,-0.40625 -4.484375,-1.21875 -1.367188,-0.820312 -2.449219,-1.929688 -3.25,-3.328125 -0.792969,-1.40625 -1.1875,-2.941406 -1.1875,-4.609375 0,-1.613281 0.398438,-3.125 1.203125,-4.53125 0.8125,-1.414062 1.898437,-2.539062 3.265625,-3.375 1.375,-0.832031 2.832031,-1.25 4.375,-1.25 1.570312,0 3.015625,0.390625 4.328125,1.171875 1.3125,0.773437 2.347656,1.835937 3.109375,3.1875 0.757812,1.355469 1.140625,2.867187 1.140625,4.53125 z m -8.578125,-4.75 c -1,0 -1.875,0.304687 -2.625,0.90625 -0.75,0.605469 -1.261719,1.429687 -1.53125,2.46875 h 8.265625 c -0.273437,-1.019531 -0.78125,-1.835937 -1.53125,-2.453125 -0.742187,-0.613281 -1.601563,-0.921875 -2.578125,-0.921875 z m 0,0" id="path8"></path>
      </g>
    </g>
    <g style="fill:#5050ff;fill-opacity:1" id="g12" transform="translate(-53.890625,-148.91797)">
      <g transform="translate(160.21141,198.84016)" id="g11">
        <path style="stroke:none" d="M 2.015625,0 V -17.421875 H 5.5 l 0.75,1.703125 h 0.171875 c 0.363281,-0.457031 0.96875,-0.929688 1.8125,-1.421875 0.84375,-0.488281 1.820313,-0.734375 2.9375,-0.734375 1.394531,0 2.617187,0.3125 3.671875,0.9375 1.0625,0.625 1.890625,1.515625 2.484375,2.671875 0.59375,1.148437 0.890625,2.476563 0.890625,3.984375 V 0 H 13.5625 v -9.875 c 0,-1.019531 -0.335938,-1.890625 -1,-2.609375 -0.65625,-0.71875 -1.476562,-1.078125 -2.453125,-1.078125 -1,0 -1.828125,0.355469 -2.484375,1.0625 -0.648438,0.699219 -0.96875,1.574219 -0.96875,2.625 V 0 Z m 0,0" id="path10"></path>
      </g>
    </g>
    <g style="fill:#5050ff;fill-opacity:1" id="g14" transform="translate(-53.890625,-148.91797)">
      <g transform="translate(180.92209,198.84016)" id="g13">
        <path style="stroke:none" d="m 18.515625,-8.984375 c 0,0.84375 -0.07031,1.492187 -0.203125,1.9375 H 5.78125 c 0.25,1.054687 0.742188,1.875 1.484375,2.46875 0.738281,0.59375 1.628906,0.890625 2.671875,0.890625 1.28125,0 2.316406,-0.429688 3.109375,-1.296875 H 17.9375 c -0.34375,0.84375 -0.886719,1.6875 -1.625,2.53125 -0.742188,0.835937 -1.65625,1.527344 -2.75,2.078125 -1.09375,0.539062 -2.277344,0.8125 -3.546875,0.8125 -1.617187,0 -3.109375,-0.40625 -4.484375,-1.21875 -1.367188,-0.820312 -2.449219,-1.929688 -3.25,-3.328125 -0.792969,-1.40625 -1.1875,-2.941406 -1.1875,-4.609375 0,-1.613281 0.398438,-3.125 1.203125,-4.53125 0.8125,-1.414062 1.898437,-2.539062 3.265625,-3.375 1.375,-0.832031 2.832031,-1.25 4.375,-1.25 1.570312,0 3.015625,0.390625 4.328125,1.171875 1.3125,0.773437 2.347656,1.835937 3.109375,3.1875 0.757812,1.355469 1.140625,2.867187 1.140625,4.53125 z m -8.578125,-4.75 c -1,0 -1.875,0.304687 -2.625,0.90625 -0.75,0.605469 -1.261719,1.429687 -1.53125,2.46875 h 8.265625 c -0.273437,-1.019531 -0.78125,-1.835937 -1.53125,-2.453125 -0.742187,-0.613281 -1.601563,-0.921875 -2.578125,-0.921875 z m 0,0" id="path12"></path>
      </g>
    </g>
    <g style="fill:#5050ff;fill-opacity:1" id="g16" transform="translate(-53.890625,-148.91797)">
      <g transform="translate(201.18848,198.84016)" id="g15">
        <path style="stroke:none" d="m 10.015625,-19.984375 c -1.648437,0 -2.46875,0.820313 -2.46875,2.453125 v 0.109375 H 11.3125 v 4.125 H 7.71875 V 0 H 3.078125 V -13.296875 H 0.8125 v -4.125 h 2.265625 v -0.65625 c 0,-1.9375 0.539063,-3.46875 1.625,-4.59375 1.082031,-1.125 2.5,-1.6875 4.25,-1.6875 0.863281,0 1.648437,0.125 2.359375,0.375 v 4.203125 c -0.34375,-0.132812 -0.777344,-0.203125 -1.296875,-0.203125 z m 0,0" id="path14"></path>
      </g>
    </g>
    <g style="fill:#5050ff;fill-opacity:1" id="g18" transform="translate(-53.890625,-148.91797)">
      <g transform="translate(213.6286,198.84016)" id="g17">
        <path style="stroke:none" d="M 6.65625,0 H 2.015625 V -17.421875 H 6.65625 Z m -2.3125,-19.65625 c -0.730469,0 -1.34375,-0.25 -1.84375,-0.75 -0.5,-0.5 -0.75,-1.113281 -0.75,-1.84375 0,-0.726562 0.25,-1.34375 0.75,-1.84375 0.5,-0.5 1.113281,-0.75 1.84375,-0.75 0.726562,0 1.34375,0.25 1.84375,0.75 0.5,0.5 0.75,1.117188 0.75,1.84375 0,0.730469 -0.25,1.34375 -0.75,1.84375 -0.5,0.5 -1.117188,0.75 -1.84375,0.75 z m 0,0" id="path16"></path>
      </g>
    </g>
    <g style="fill:#5050ff;fill-opacity:1" id="g20" transform="translate(-53.890625,-148.91797)">
      <g transform="translate(222.95871,198.84016)" id="g19">
        <path style="stroke:none" d="M 9.09375,0.4375 C 7.363281,0.4375 5.953125,-0.128906 4.859375,-1.265625 3.765625,-2.398438 3.21875,-3.945312 3.21875,-5.90625 v -7.390625 H 0.515625 v -3.78125 h 1.1875 c 0.664063,0 1.179687,-0.175781 1.546875,-0.53125 0.363281,-0.351563 0.546875,-0.863281 0.546875,-1.53125 v -2.65625 h 4.0625 v 4.375 h 3.59375 v 4.125 h -3.59375 v 6.90625 c 0,0.824219 0.207031,1.4375 0.625,1.84375 C 8.910156,-4.140625 9.5,-3.9375 10.25,-3.9375 c 0.476562,0 0.878906,-0.078125 1.203125,-0.234375 V 0.0625 c -0.710937,0.25 -1.496094,0.375 -2.359375,0.375 z m 0,0" id="path18"></path>
      </g>
    </g>
    <g style="fill:#5050ff;fill-opacity:1" id="g22">
      <g transform="translate(236.25322,198.84016)" id="g21">
        <path style="stroke:none" d="" id="path20"></path>
      </g>
    </g>
    <g style="fill:#5050ff;fill-opacity:1" id="g24" transform="translate(-53.890625,-148.91797)">
      <g transform="translate(245.51497,198.84016)" id="g23">
        <path style="stroke:none" d="m 11.515625,-23.921875 c 1.550781,0 2.957031,0.355469 4.21875,1.0625 1.257813,0.710937 2.253906,1.679687 2.984375,2.90625 0.726562,1.230469 1.09375,2.605469 1.09375,4.125 0,1.53125 -0.367188,2.914063 -1.09375,4.140625 -0.730469,1.230469 -1.726562,2.199219 -2.984375,2.90625 -1.261719,0.710938 -2.667969,1.0625 -4.21875,1.0625 H 7.28125 V 0 H 2.390625 V -23.921875 Z M 11.40625,-12.4375 c 0.976562,0 1.8125,-0.320312 2.5,-0.96875 0.6875,-0.65625 1.03125,-1.460938 1.03125,-2.421875 0,-0.945313 -0.34375,-1.742187 -1.03125,-2.390625 -0.6875,-0.65625 -1.523438,-0.984375 -2.5,-0.984375 h -4.125 v 6.765625 z m 0,0" id="path22"></path>
      </g>
    </g>
    <g style="fill:#5050ff;fill-opacity:1" id="g26" transform="translate(-53.890625,-148.91797)">
      <g transform="translate(267.18256,198.84016)" id="g25">
        <path style="stroke:none" d="m 8.84375,-17.875 c 2.257812,0 4.035156,0.679688 5.328125,2.03125 1.300781,1.355469 1.953125,3.164062 1.953125,5.421875 V 0 h -3.484375 l -0.75,-1.703125 H 11.71875 C 10.351562,-0.273438 8.703125,0.4375 6.765625,0.4375 c -1.09375,0 -2.09375,-0.226562 -3,-0.671875 C 2.867188,-0.691406 2.164062,-1.316406 1.65625,-2.109375 1.144531,-2.910156 0.890625,-3.789062 0.890625,-4.75 c 0,-1.1875 0.347656,-2.21875 1.046875,-3.09375 0.707031,-0.875 1.691406,-1.546875 2.953125,-2.015625 1.269531,-0.46875 2.726563,-0.703125 4.375,-0.703125 h 2.21875 v -0.34375 c 0,-0.882812 -0.242187,-1.578125 -0.71875,-2.078125 -0.480469,-0.5 -1.132813,-0.75 -1.953125,-0.75 -0.710938,0 -1.273438,0.1875 -1.6875,0.5625 -0.417969,0.375 -0.671875,0.78125 -0.765625,1.21875 h -4.65625 c 0.09375,-1.03125 0.414063,-1.992187 0.96875,-2.890625 0.5625,-0.90625 1.363281,-1.632812 2.40625,-2.1875 1.050781,-0.5625 2.304687,-0.84375 3.765625,-0.84375 z M 7.859375,-3.34375 c 1.070313,0 1.941406,-0.316406 2.609375,-0.953125 0.675781,-0.644531 1.015625,-1.398437 1.015625,-2.265625 V -7.453125 H 9.125 c -1.25,0 -2.164062,0.203125 -2.734375,0.609375 -0.574219,0.398438 -0.859375,0.949219 -0.859375,1.65625 0,0.542969 0.195312,0.984375 0.59375,1.328125 0.40625,0.34375 0.984375,0.515625 1.734375,0.515625 z m 0,0" id="path24"></path>
      </g>
    </g>
    <g style="fill:#5050ff;fill-opacity:1" id="g28" transform="translate(-53.890625,-148.91797)">
      <g transform="translate(285.80851,198.84016)" id="g27">
        <path style="stroke:none" d="M 9.09375,0.4375 C 7.363281,0.4375 5.953125,-0.128906 4.859375,-1.265625 3.765625,-2.398438 3.21875,-3.945312 3.21875,-5.90625 v -7.390625 H 0.515625 v -3.78125 h 1.1875 c 0.664063,0 1.179687,-0.175781 1.546875,-0.53125 0.363281,-0.351563 0.546875,-0.863281 0.546875,-1.53125 v -2.65625 h 4.0625 v 4.375 h 3.59375 v 4.125 h -3.59375 v 6.90625 c 0,0.824219 0.207031,1.4375 0.625,1.84375 C 8.910156,-4.140625 9.5,-3.9375 10.25,-3.9375 c 0.476562,0 0.878906,-0.078125 1.203125,-0.234375 V 0.0625 c -0.710937,0.25 -1.496094,0.375 -2.359375,0.375 z m 0,0" id="path26"></path>
      </g>
    </g>
    <g style="fill:#5050ff;fill-opacity:1" id="g30" transform="translate(-53.890625,-148.91797)">
      <g transform="translate(299.10302,198.84016)" id="g29">
        <path style="stroke:none" d="m 2.1875,0 v -23.921875 h 4.640625 v 8.203125 H 7 c 0.164062,-0.226562 0.46875,-0.507812 0.90625,-0.84375 0.445312,-0.34375 1,-0.644531 1.65625,-0.90625 0.664062,-0.269531 1.382812,-0.40625 2.15625,-0.40625 1.28125,0 2.425781,0.3125 3.4375,0.9375 1.007812,0.625 1.800781,1.515625 2.375,2.671875 0.570312,1.148437 0.859375,2.476563 0.859375,3.984375 V 0 h -4.65625 v -9.875 c 0,-1.019531 -0.335937,-1.890625 -1,-2.609375 -0.65625,-0.71875 -1.476563,-1.078125 -2.453125,-1.078125 -1,0 -1.828125,0.355469 -2.484375,1.0625 -0.648437,0.699219 -0.96875,1.574219 -0.96875,2.625 V 0 Z m 0,0" id="path28"></path>
      </g>
    </g>
  </g>
</svg>
