<?xml version="1.0" encoding="UTF-8" standalone="no"?>
<svg
   width="45.41"
   zoomAndPan="magnify"
   viewBox="0 0 45.41 77.151999"
   height="77.152"
   preserveAspectRatio="xMidYMid"
   version="1.2"
   id="svg30"
   xmlns="http://www.w3.org/2000/svg"
   xmlns:svg="http://www.w3.org/2000/svg">
  <defs
     id="defs2">
    <clipPath
       id="4224b4aa77">
      <path
         d="M 73,148.91797 H 99.628906 V 216 H 73 Z m 0,0"
         id="path1" />
    </clipPath>
    <clipPath
       id="dac982398e">
      <path
         d="M 53.878906,157 H 80 v 69.16797 H 53.878906 Z m 0,0"
         id="path2" />
    </clipPath>
  </defs>
  <g
     id="09a77e87d6">
    <g
       clip-rule="nonzero"
       clip-path="url(#4224b4aa77)"
       id="g3"
       transform="translate(-53.890625,-148.91797)">
      <path
         style="fill:#8cc546;fill-opacity:1;fill-rule:nonzero;stroke:none"
         d="m 99.300781,215.82422 -19.570312,-2.23438 v -51.47656 l -6.269531,-1.19141 v -9.05859 l 25.839843,-2.94531 v 66.90625"
         id="path3" />
    </g>
    <g
       clip-rule="nonzero"
       clip-path="url(#dac982398e)"
       id="g4"
       transform="translate(-53.890625,-148.91797)">
      <path
         style="fill:#5050ff;fill-opacity:1;fill-rule:nonzero;stroke:none"
         d="m 53.890625,226.07031 v -68.87109 l 19.570313,3.72265 V 212.875 l 6.269531,0.71484 v 7.57032 l -25.839844,4.91015"
         id="path4" />
    </g>
    <path
       style="fill:#0d5a5a;fill-opacity:1;fill-rule:nonzero;stroke:none"
       d="M 25.839844,64.671875 19.570313,63.957031 V 12.003906 l 6.269531,1.191406 v 51.476563"
       id="path5" />
    <path
       style="fill:#ffffff;fill-opacity:1;fill-rule:nonzero;stroke:none"
       d="M 17.160156,53.125 V 45.078125 H 9.113281 c -0.371094,0 -0.675781,-0.300782 -0.675781,-0.675782 v -9.730468 c 0,-0.375 0.304687,-0.675782 0.675781,-0.675782 h 8.046875 v -8.050781 c 0,-0.371093 0.304688,-0.675781 0.679688,-0.675781 h 9.730469 c 0.375,0 0.675781,0.304688 0.675781,0.675781 v 8.050781 h 8.046875 c 0.375,0 0.679687,0.300782 0.679687,0.675782 v 9.730468 c 0,0.375 -0.304687,0.675782 -0.679687,0.675782 H 28.246094 V 53.125 c 0,0.375 -0.300781,0.679687 -0.675781,0.679687 h -9.730469 c -0.375,0 -0.679688,-0.304687 -0.679688,-0.679687"
       id="path6" />
    <g
       style="fill:#5050ff;fill-opacity:1"
       id="g8"
       transform="translate(-53.890625,-148.91797)">
      <g
         transform="translate(117.4572,198.84016)"
         id="g7" />
    </g>
    <g
       style="fill:#5050ff;fill-opacity:1"
       id="g10"
       transform="translate(-53.890625,-148.91797)">
      <g
         transform="translate(139.94502,198.84016)"
         id="g9" />
    </g>
    <g
       style="fill:#5050ff;fill-opacity:1"
       id="g12"
       transform="translate(-53.890625,-148.91797)">
      <g
         transform="translate(160.21141,198.84016)"
         id="g11" />
    </g>
    <g
       style="fill:#5050ff;fill-opacity:1"
       id="g14"
       transform="translate(-53.890625,-148.91797)">
      <g
         transform="translate(180.92209,198.84016)"
         id="g13" />
    </g>
    <g
       style="fill:#5050ff;fill-opacity:1"
       id="g16"
       transform="translate(-53.890625,-148.91797)">
      <g
         transform="translate(201.18848,198.84016)"
         id="g15" />
    </g>
    <g
       style="fill:#5050ff;fill-opacity:1"
       id="g18"
       transform="translate(-53.890625,-148.91797)">
      <g
         transform="translate(213.6286,198.84016)"
         id="g17" />
    </g>
    <g
       style="fill:#5050ff;fill-opacity:1"
       id="g20"
       transform="translate(-53.890625,-148.91797)">
      <g
         transform="translate(222.95871,198.84016)"
         id="g19" />
    </g>
    <g
       style="fill:#5050ff;fill-opacity:1"
       id="g22">
      <g
         transform="translate(236.25322,198.84016)"
         id="g21">
        <path
           style="stroke:none"
           d=""
           id="path20" />
      </g>
    </g>
    <g
       style="fill:#5050ff;fill-opacity:1"
       id="g24"
       transform="translate(-53.890625,-148.91797)">
      <g
         transform="translate(245.51497,198.84016)"
         id="g23" />
    </g>
    <g
       style="fill:#5050ff;fill-opacity:1"
       id="g26"
       transform="translate(-53.890625,-148.91797)">
      <g
         transform="translate(267.18256,198.84016)"
         id="g25" />
    </g>
    <g
       style="fill:#5050ff;fill-opacity:1"
       id="g28"
       transform="translate(-53.890625,-148.91797)">
      <g
         transform="translate(285.80851,198.84016)"
         id="g27" />
    </g>
    <g
       style="fill:#5050ff;fill-opacity:1"
       id="g30"
       transform="translate(-53.890625,-148.91797)">
      <g
         transform="translate(299.10302,198.84016)"
         id="g29" />
    </g>
  </g>
</svg>
